<svg width="9" height="4" viewBox="0 0 9 4" fill="none" xmlns="http://www.w3.org/2000/svg">
<path d="M8.367 0.409C8.597 0.409 8.712 0.508667 8.712 0.708C8.712 0.830667 8.643 0.961001 8.505 1.099L6.251 3.399C6.09767 3.56767 5.96733 3.66733 5.86 3.698C5.73733 3.744 5.607 3.767 5.469 3.767H4.227C4.07367 3.767 3.94333 3.744 3.836 3.698C3.72867 3.66733 3.59833 3.56767 3.445 3.399L1.191 1.099C1.053 0.961001 0.984 0.830667 0.984 0.708C0.984 0.508667 1.099 0.409 1.329 0.409H2.18C2.30267 0.409 2.42533 0.416667 2.548 0.432001C2.67067 0.462667 2.78567 0.508667 2.893 0.570001L4.848 1.789L6.803 0.570001C6.895 0.508667 7.01 0.462667 7.148 0.432001C7.27067 0.416667 7.39333 0.409 7.516 0.409H8.367Z" fill="#A0AFC0"/>
</svg>
