<svg width="14" height="19" viewBox="0 0 14 19" fill="none" xmlns="http://www.w3.org/2000/svg">
<path d="M1.52 18.52C1.36 18.52 1.22 18.47 1.1 18.37C0.98 18.25 0.92 18.09 0.92 17.89L0.92 15.64C0.92 15.34 0.99 15.12 1.13 14.98C1.27 14.82 1.45 14.68 1.67 14.56L8.96 9.64L1.67 4.75C1.45 4.61 1.27 4.47 1.13 4.33C0.99 4.17 0.92 3.95 0.92 3.67L0.92 1.39C0.92 1.19 0.98 1.04 1.1 0.939998C1.22 0.839998 1.36 0.789998 1.52 0.789998C1.62 0.789998 1.73 0.819999 1.85 0.879999C1.97 0.919999 2.07 0.969998 2.15 1.03L12.26 7.96C12.56 8.16 12.78 8.36 12.92 8.56C13.06 8.74 13.13 8.98 13.13 9.28L13.13 10C13.13 10.3 13.06 10.55 12.92 10.75C12.78 10.95 12.56 11.15 12.26 11.35L2.15 18.28C2.07 18.32 1.97 18.37 1.85 18.43C1.73 18.49 1.62 18.52 1.52 18.52Z" fill="#A0AFC0"/>
</svg>
